<svg xmlns="http://www.w3.org/2000/svg" viewBox="0 0 440 124" role="img" aria-labelledby="title desc"><title id="title">Body OS</title><desc id="desc">Azure DNA helix symbol with Body OS wordmark</desc><defs><linearGradient id="helixA" x1="0" y1="0" x2="1" y2="1"><stop offset="0" stop-color="#8BE8FF"/><stop offset="0.34" stop-color="#22C7F4"/><stop offset="0.68" stop-color="#0877F9"/><stop offset="1" stop-color="#123ED8"/></linearGradient><linearGradient id="helixB" x1="0" y1="1" x2="1" y2="0"><stop offset="0" stop-color="#0935C9"/><stop offset="0.52" stop-color="#0877F9"/><stop offset="1" stop-color="#37D9F3"/></linearGradient><linearGradient id="rungs" x1="0" y1="0" x2="1" y2="0"><stop stop-color="#B9F1FF" stop-opacity=".9"/><stop offset=".5" stop-color="#fff" stop-opacity=".38"/><stop offset="1" stop-color="#6AB6FF" stop-opacity=".92"/></linearGradient><filter id="softGlow" x="-30%" y="-30%" width="160%" height="160%"><feGaussianBlur stdDeviation="3" result="blur"/><feMerge><feMergeNode in="blur"/><feMergeNode in="SourceGraphic"/></feMerge></filter></defs><g transform="translate(12 8)" filter="url(#softGlow)"><path d="M35 5c0 17 11 24 27 34 17 11 29 21 29 39 0 15-8 26-22 37l-13-11c12-9 18-16 18-26 0-10-8-17-23-27C34 40 18 29 18 5z" fill="url(#helixA)"/><path d="M75 5c0 10-7 18-22 28C35 45 23 56 23 76c0 16 10 28 25 39l13-11C47 94 40 86 40 76c0-11 8-18 24-29C82 35 92 23 92 5z" fill="url(#helixB)"/><g stroke="url(#rungs)" stroke-width="4" stroke-linecap="round" opacity=".9"><path d="M34 22h42"/><path d="M40 40h31"/><path d="M39 59h33"/><path d="M33 79h44"/><path d="M40 98h30"/></g></g><g fill="#fff"><text x="126" y="57" font-family="Inter,Segoe UI,Arial,sans-serif" font-size="34" font-weight="700" letter-spacing="6.8">BODY <tspan fill="#2DA9FF">OS</tspan></text><text x="128" y="88" font-family="Inter,Segoe UI,Arial,sans-serif" font-size="12" font-weight="600" letter-spacing="2.5" opacity=".82">YOUR PERSONAL HEALTH OPERATING SYSTEM</text></g></svg>