<svg xmlns="http://www.w3.org/2000/svg" viewBox="0 0 128 128"><defs><linearGradient id="a" x1="0" y1="0" x2="1" y2="1"><stop stop-color="#8BE8FF"/><stop offset=".38" stop-color="#22C7F4"/><stop offset=".72" stop-color="#0877F9"/><stop offset="1" stop-color="#113EDB"/></linearGradient><linearGradient id="b" x1="0" y1="1" x2="1" y2="0"><stop stop-color="#0636C9"/><stop offset=".55" stop-color="#0877F9"/><stop offset="1" stop-color="#20D8F2"/></linearGradient></defs><rect width="128" height="128" rx="28" fill="#06245A"/><path d="M24 18v60c0 19 15 34 34 34s34-15 34-34-15-34-34-34c-7 0-14 2-20 6V18H24zm34 42c10 0 18 8 18 18s-8 18-18 18-18-8-18-18 8-18 18-18z" fill="url(#a)"/><path d="M83 44c-19 0-34 15-34 34s15 34 34 34 34-15 34-34-15-34-34-34zm0 16c10 0 18 8 18 18s-8 18-18 18-18-8-18-18 8-18 18-18z" fill="url(#b)"/></svg>