<svg xmlns="http://www.w3.org/2000/svg" viewBox="0 0 128 128" role="img" aria-label="Body OS DNA icon"><defs><linearGradient id="a" x1="0" y1="0" x2="1" y2="1"><stop offset="0" stop-color="#8BE8FF"/><stop offset=".34" stop-color="#22C7F4"/><stop offset=".68" stop-color="#0877F9"/><stop offset="1" stop-color="#123ED8"/></linearGradient><linearGradient id="b" x1="0" y1="1" x2="1" y2="0"><stop offset="0" stop-color="#0935C9"/><stop offset=".52" stop-color="#0877F9"/><stop offset="1" stop-color="#37D9F3"/></linearGradient><linearGradient id="c" x1="0" y1="0" x2="1" y2="0"><stop stop-color="#C7F5FF"/><stop offset=".5" stop-color="#fff" stop-opacity=".35"/><stop offset="1" stop-color="#66B4FF"/></linearGradient></defs><rect width="128" height="128" rx="28" fill="#06245A"/><path d="M42 18c0 18 11 26 25 35 16 10 27 20 27 37 0 14-8 25-21 35L60 114c11-9 17-15 17-24 0-9-7-15-22-25C39 55 26 44 26 18z" fill="url(#a)"/><path d="M84 18c0 10-7 17-21 27C46 56 35 67 35 86c0 14 9 25 23 35l13-11C58 101 52 95 52 86c0-10 7-17 22-27 17-11 27-23 27-41z" fill="url(#b)"/><g stroke="url(#c)" stroke-width="4" stroke-linecap="round"><path d="M39 35h45"/><path d="M45 53h33"/><path d="M44 72h35"/><path d="M38 91h47"/><path d="M46 108h31"/></g></svg>