<svg xmlns="http://www.w3.org/2000/svg" viewBox="0 0 420 120" role="img" aria-labelledby="title desc"><title id="title">Body OS</title><desc id="desc">Azure gradient Body OS monogram and wordmark</desc><defs><linearGradient id="g1" x1="0" y1="0" x2="1" y2="1"><stop offset="0" stop-color="#8BE8FF"/><stop offset="0.35" stop-color="#22C7F4"/><stop offset="0.68" stop-color="#0877F9"/><stop offset="1" stop-color="#113EDB"/></linearGradient><linearGradient id="g2" x1="0" y1="1" x2="1" y2="0"><stop offset="0" stop-color="#0636C9"/><stop offset="0.52" stop-color="#0877F9"/><stop offset="1" stop-color="#20D8F2"/></linearGradient><filter id="glow" x="-30%" y="-30%" width="160%" height="160%"><feGaussianBlur stdDeviation="4" result="b"/><feMerge><feMergeNode in="b"/><feMergeNode in="SourceGraphic"/></feMerge></filter></defs><g transform="translate(10 10)"><path d="M32 6v56c0 19 15 34 34 34s34-15 34-34-15-34-34-34c-8 0-15 2-21 7V6H32zm34 37c11 0 20 9 20 20s-9 20-20 20-20-9-20-20 9-20 20-20z" fill="url(#g1)" filter="url(#glow)"/><path d="M116 29c-19 0-34 15-34 34s15 34 34 34 34-15 34-34-15-34-34-34zm0 14c11 0 20 9 20 20s-9 20-20 20-20-9-20-20 9-20 20-20z" fill="url(#g2)" opacity=".98" filter="url(#glow)"/></g><g fill="#fff"><text x="180" y="57" font-family="Inter,Segoe UI,Arial,sans-serif" font-size="34" font-weight="700" letter-spacing="7">BODY OS</text><text x="181" y="86" font-family="Inter,Segoe UI,Arial,sans-serif" font-size="12" font-weight="600" letter-spacing="2.7" opacity=".82">YOUR PERSONAL HEALTH OPERATING SYSTEM</text></g></svg>